<svg width="630" height="506" viewBox="0 0 630 506" fill="none" xmlns="http://www.w3.org/2000/svg">
<g clip-path="url(#clip0_2090_47)">
<path fill-rule="evenodd" clip-rule="evenodd" d="M481.5 170.5C473.361 156.229 465.194 141.896 457 127.5C445.267 110.433 431.434 95.266 415.5 82C413.945 80.711 412.279 80.044 410.5 80C438.381 116.587 459.881 156.754 475 200.5C475.494 202.134 475.66 203.801 475.5 205.5C468.232 198.401 460.232 192.234 451.5 187C439.039 180.621 426.373 174.621 413.5 169C395.024 158.51 379.524 144.677 367 127.5C359.107 113.153 354.44 97.82 353 81.5C352.333 66.5 352.333 51.5 353 36.5C354.512 24.432 356.345 12.432 358.5 0.5C383.646 11.406 407.979 23.906 431.5 38C472.276 61.718 490.11 97.218 485 144.5C484.808 153.314 483.642 161.981 481.5 170.5Z" fill="#33A969"/>
<path fill-rule="evenodd" clip-rule="evenodd" d="M513.5 241.5C516.577 209.43 527.077 180.097 545 153.5C554.125 142.039 563.625 130.873 573.5 120C547.477 132.69 527.977 152.19 515 178.5C509.888 189.371 505.388 200.371 501.5 211.5C499.983 201.043 499.317 190.376 499.5 179.5C495.541 125.693 518.874 90.193 569.5 73C589.004 66.5 609.004 63.167 629.5 63C625.338 72.486 622.172 82.319 620 92.5C617.167 111.998 613.501 131.332 609 150.5C599.271 176.899 569 201.5 556.5 209C544 216.5 534.5 218 524 228.5C520.591 231.909 515.559 238.389 513.5 241.5Z" fill="#33A968"/>
<path fill-rule="evenodd" clip-rule="evenodd" d="M481.5 170.5C487.915 187.011 494.081 203.677 500 220.5C500.696 217.522 501.196 214.522 501.5 211.5C505.388 200.371 509.888 189.371 515 178.5C527.977 152.19 547.477 132.69 573.5 120C563.625 130.873 554.125 142.039 545 153.5C527.077 180.097 516.577 209.43 513.5 241.5C513.334 250.173 513.5 258.84 514 267.5C514.844 271.211 515.844 274.877 517 278.5C527.573 297.308 537.906 316.308 548 335.5C557.239 354.121 561.239 373.788 560 394.5C558.714 402.024 556.047 409.024 552 415.5C547.303 422.348 542.47 429.015 537.5 435.5C543.649 401.72 539.149 369.386 524 338.5C515.333 323.167 506.667 307.833 498 292.5C494.635 284.564 491.801 276.564 489.5 268.5C487.124 246.948 482.457 225.948 475.5 205.5C475.66 203.801 475.494 202.134 475 200.5C459.881 156.754 438.381 116.587 410.5 80C412.279 80.044 413.945 80.711 415.5 82C431.434 95.266 445.267 110.433 457 127.5C465.194 141.896 473.361 156.229 481.5 170.5Z" fill="#2A7F59"/>
<path fill-rule="evenodd" clip-rule="evenodd" d="M71.4999 164.5C100.846 206.537 130.179 248.537 159.5 290.5C205.4 357.949 251.566 425.283 298 492.5C299.538 497.12 298.038 500.287 293.5 502C247.5 502.667 201.5 502.667 155.5 502C144.687 498.857 136.521 492.357 131 482.5C91.5799 425.325 51.9129 368.325 11.9999 311.5C3.2599 300.283 -0.407105 287.616 0.999895 273.5C2.27389 269.01 3.94089 264.677 5.99989 260.5C27.6089 228.261 49.4419 196.261 71.4999 164.5Z" fill="#4092FB"/>
<path fill-rule="evenodd" clip-rule="evenodd" d="M159.5 290.5C130.179 248.537 100.846 206.537 71.5 164.5C91.99 133.529 112.49 102.529 133 71.5C137.151 66.683 142.318 63.517 148.5 62C199.167 61.333 249.833 61.333 300.5 62C307.247 63.332 309.414 67.165 307 73.5C257.97 146.011 208.804 218.344 159.5 290.5Z" fill="#FE4B3E"/>
<path fill-rule="evenodd" clip-rule="evenodd" d="M489.5 268.5C491.801 276.564 494.635 284.564 498 292.5C506.667 307.833 515.333 323.167 524 338.5C539.149 369.386 543.649 401.72 537.5 435.5C524.354 455.109 511.187 474.776 498 494.5C493.72 499.059 488.553 502.226 482.5 504C435.538 505.642 388.538 505.975 341.5 505C335.795 501.627 334.962 497.127 339 491.5C389.421 417.262 439.588 342.929 489.5 268.5Z" fill="#FED625"/>
</g>
<defs>
<clipPath id="clip0_2090_47">
<rect width="630" height="506" fill="white"/>
</clipPath>
</defs>
</svg>
